<svg xmlns="http://www.w3.org/2000/svg" width="48.11" height="48.03" viewBox="0 0 48.11 48.03" id="megaphone-small" data-supported-dps="48x48">
  <path d="M41.52 4.43c-6.66 6.91-12.94 9.12-23.47 9.57v15c10.5.48 16.78 2.78 23.47 9.69l1.53 1.86v-38z" fill="#c0d1e2"/>
  <path d="M18.05 29V14h-13a2 2 0 00-2 2v11a2 2 0 002 2h4l2.89 11.21s.87 3.57 2.86 5.08A8.2 8.2 0 0019.59 47h2.46z" fill="#56687a" fill-rule="evenodd"/>
  <path d="M2.05 16a2 2 0 00-2 2v7a2 2 0 002 2h1V16z" fill="#f8c77e"/>
  <path d="M44.05 1a1 1 0 011 1v39a1 1 0 01-1 1 1 1 0 01-1-1V2a1 1 0 011-1z" fill="#38434f"/>
  <path d="M48.05 22a4 4 0 00-3-3.86v7.72a4 4 0 003-3.86z" fill="#f8c77e"/>
</svg>
